<?xml version="1.0" encoding="UTF-8"?>
<svg version="1.1" xmlns="http://www.w3.org/2000/svg" width="600" height="636">
<path d="M0 0 C1.06506271 0.00364059 1.06506271 0.00364059 2.15164185 0.00735474 C12.99618147 0.07935308 22.38023291 0.79349746 32.3125 5.5 C32.99231934 5.80583008 33.67213867 6.11166016 34.37255859 6.42675781 C46.33529029 11.86852238 56.03703128 19.22453128 65.3125 28.5 C67.77085238 29.2405714 67.77085238 29.2405714 70.67578125 29.796875 C71.77978271 30.03003418 72.88378418 30.26319336 74.02124023 30.50341797 C75.21048096 30.74979004 76.39972168 30.99616211 77.625 31.25 C96.94119913 35.41771529 115.143271 40.71318757 133.3125 48.5 C134.14136719 48.84933594 134.97023438 49.19867188 135.82421875 49.55859375 C168.31074873 63.30870644 199.0005058 83.78987195 223.3125 109.5 C226.99689053 106.73832023 229.79375913 103.87316017 232.625 100.25 C245.22351632 84.67365255 245.22351632 84.67365255 254.3125 83.5 C268.27137015 83.12821411 281.39204912 86.60883192 291.9375 95.9375 C294.7113893 98.83747518 296.43261932 102.00212951 296.6953125 106.04296875 C295.03954143 116.67031569 287.14061589 125.71778711 280.3125 133.5 C278.80555404 135.32762824 277.30554861 137.1610011 275.8125 139 C273.48259595 141.86915746 271.13438799 144.70512299 268.7109375 147.49609375 C267.46183594 148.95208984 267.46183594 148.95208984 266.1875 150.4375 C265.42179688 151.31277344 264.65609375 152.18804687 263.8671875 153.08984375 C262.079052 155.28948094 262.079052 155.28948094 262.56274414 157.36279297 C263.41088915 159.78046193 264.49571471 161.87259302 265.75390625 164.10546875 C266.25116211 164.99758057 266.74841797 165.88969238 267.26074219 166.80883789 C268.0597998 168.23377563 268.0597998 168.23377563 268.875 169.6875 C286.19885749 201.09147909 297.66256149 234.01796134 303.3125 269.5 C303.49941406 270.61020508 303.68632813 271.72041016 303.87890625 272.86425781 C305.6872469 285.04149459 305.68471833 297.23036058 305.68310547 309.52197266 C305.68744263 313.20133047 305.72376911 316.87944974 305.76171875 320.55859375 C306.06834991 385.61169895 282.30213574 461.8535712 237.3125 510.5 C234.3125 512.5 234.3125 512.5 230.8125 512.4375 C227.3125 511.5 227.3125 511.5 225.5625 509.5 C225.15 508.51 224.7375 507.52 224.3125 506.5 C224.00054688 505.80003906 223.68859375 505.10007812 223.3671875 504.37890625 C220.95795472 498.37606995 220.95795472 498.37606995 222.5234375 494.5078125 C224.15044085 491.77245752 225.85712488 489.31886005 227.8125 486.8125 C241.71299431 467.931207 252.58271988 445.75930079 259.68603516 423.45019531 C260.29996608 421.53901831 260.95236403 419.64033474 261.60546875 417.7421875 C267.41398006 400.58037462 270.74648798 382.5273477 272.3125 364.5 C272.47878906 362.64761719 272.47878906 362.64761719 272.6484375 360.7578125 C277.06748473 304.26566815 263.1846916 241.84819014 231.3125 194.5 C230.6525 194.17 229.9925 193.84 229.3125 193.5 C229.09207031 194.02335938 228.87164063 194.54671875 228.64453125 195.0859375 C226.81103705 198.40880969 224.4054651 201.20862269 222 204.125 C183.24042823 251.96481627 150.9596096 306.27020214 150.3125 369.5 C150.29880371 370.28455566 150.28510742 371.06911133 150.27099609 371.87744141 C150.17518228 377.75440676 150.20239507 383.62344212 150.3125 389.5 C150.33135254 390.62946045 150.33135254 390.62946045 150.35058594 391.78173828 C150.84924133 414.93868417 155.07366681 437.9918829 160.3125 460.5 C160.54775391 461.52287109 160.78300781 462.54574219 161.02539062 463.59960938 C168.58245596 495.92151678 180.36376102 526.92664182 193.84375 557.203125 C194.22241211 558.06615234 194.60107422 558.92917969 194.99121094 559.81835938 C195.67172885 561.36301717 196.36616736 562.90167423 197.07910156 564.43164062 C199.89594026 570.81890593 200.48086186 577.02634702 197.9375 583.625 C184.25375183 607.46575713 132.4167655 619.08832148 107.7734375 625.82421875 C57.36343448 639.14263434 0.60157643 642.59946821 -50.6875 631.5 C-52.62399414 631.09056152 -52.62399414 631.09056152 -54.59960938 630.67285156 C-83.53229185 624.47214542 -112.66211077 615.54501495 -138.81005859 601.49755859 C-140.79293649 600.44397744 -142.79386411 599.43275415 -144.80078125 598.42578125 C-160.55038648 590.4413421 -174.91504257 580.51428838 -188.6875 569.5 C-189.99654297 568.48099609 -189.99654297 568.48099609 -191.33203125 567.44140625 C-197.4428814 562.59486992 -203.17124471 557.37838107 -208.875 552.0625 C-210.02693848 550.99588135 -210.02693848 550.99588135 -211.20214844 549.90771484 C-211.91274414 549.23820801 -212.62333984 548.56870117 -213.35546875 547.87890625 C-213.99766357 547.2763501 -214.6398584 546.67379395 -215.30151367 546.05297852 C-216.6875 544.5 -216.6875 544.5 -216.6875 542.5 C-217.3475 542.5 -218.0075 542.5 -218.6875 542.5 C-221.26975309 540.08460019 -223.42971226 537.21472097 -225.6875 534.5 C-226.14060547 533.96842285 -226.59371094 533.4368457 -227.06054688 532.88916016 C-235.96048444 522.44255144 -243.74790888 511.43924713 -251.15380859 499.890625 C-252.08414165 498.44047834 -253.0203545 496.99405099 -253.96728516 495.5546875 C-265.52101207 477.99026585 -274.52313169 457.57897714 -280.6875 437.5 C-280.96255371 436.63052734 -281.23760742 435.76105469 -281.52099609 434.86523438 C-286.31933598 419.62129774 -290.03030133 404.26079849 -292.6875 388.5 C-292.96678345 386.99083008 -292.96678345 386.99083008 -293.25170898 385.45117188 C-295.46662249 371.7946877 -295.13024278 357.9212467 -295.125 344.125 C-295.12546955 343.44560616 -295.1259391 342.76621231 -295.12642288 342.06623077 C-295.13468195 320.82273535 -294.4561498 300.30219938 -289.6875 279.5 C-289.29401367 277.73076172 -289.29401367 277.73076172 -288.89257812 275.92578125 C-281.38220984 242.89456918 -269.3683839 207.09754097 -249.42333984 179.34399414 C-248.43753722 177.46715635 -248.43753722 177.46715635 -249.44433594 175.41088867 C-250.99001709 173.03499582 -252.73439691 170.9161297 -254.5625 168.75 C-258.88442584 163.39081196 -262.75882955 158.44806235 -263.1875 151.375 C-262.41665446 145.40094707 -259.76770943 142.19111481 -255.25 138.4375 C-245.98950428 131.92274979 -230.69478116 126.45890985 -219.13378906 127.79516602 C-214.55874783 128.26574401 -211.79123935 128.26434486 -207.92529297 125.5871582 C-205.03722961 122.86211821 -202.33692153 120.01534428 -199.6875 117.0625 C-197.86493434 115.09528114 -196.02729475 113.14250625 -194.1875 111.19140625 C-193.28354492 110.23065186 -192.37958984 109.26989746 -191.44824219 108.2800293 C-187.16236724 103.96421235 -182.48692684 100.22464996 -177.6875 96.5 C-176.95595703 95.92080811 -176.22441406 95.34161621 -175.47070312 94.74487305 C-150.35111584 74.9323673 -122.12988294 57.04381766 -91.7109375 46.6875 C-91.03745773 46.4551918 -90.36397797 46.22288361 -89.67008972 45.98353577 C-86.3898773 44.85744641 -83.1054355 43.77640917 -79.78735352 42.76733398 C-71.86046401 40.13142627 -67.79382644 37.33690585 -63.37475586 30.17895508 C-56.69577639 19.57434768 -45.64307056 12.84631018 -34.75 7.25 C-34.11827881 6.92056396 -33.48655762 6.59112793 -32.83569336 6.25170898 C-22.19317276 0.97430337 -11.73650984 -0.08083773 0 0 Z M-188.63476562 135.31762695 C-190.6711573 137.36035733 -192.68575314 139.42334369 -194.6875 141.5 C-193.95144531 142.23476562 -193.21539062 142.96953125 -192.45703125 143.7265625 C-190.80323722 145.3826891 -189.15336349 147.04276708 -187.51171875 148.7109375 C-182.74333599 153.54034161 -177.84865925 158.09707449 -172.6875 162.5 C-171.64656143 163.40428762 -170.60624817 164.30929531 -169.56640625 165.21484375 C-125.03571859 203.87606639 -72.43846642 237.64243595 -12.6875 244.5 C-11.54539062 244.63148438 -10.40328125 244.76296875 -9.2265625 244.8984375 C50.58881737 250.70728016 105.31300848 219.86601137 150.02880859 183.08837891 C156.4507989 177.75729771 162.74315665 172.29196738 168.91796875 166.67578125 C170.53665471 165.20496873 172.16455971 163.74424845 173.80078125 162.29296875 C179.86354494 156.90908373 185.63415049 151.28708386 191.3125 145.5 C180.24109291 117.94873984 127.5906957 94.29326721 102.3125 83.5 C99.65860407 82.45845626 96.99300471 81.47225086 94.3125 80.5 C94.43367188 81.2528125 94.55484375 82.005625 94.6796875 82.78125 C95.2429581 86.35151905 95.78177023 89.92474605 96.3125 93.5 C96.59867187 95.41232422 96.59867187 95.41232422 96.890625 97.36328125 C101.37044738 129.71399857 95.0751472 161.75218985 75.77734375 188.40625 C62.25818855 205.37482514 44.80135213 216.3924988 23.3125 220.5 C19.03109302 220.91108909 14.79904509 220.97851959 10.5 220.9375 C9.35926025 220.92847656 8.21852051 220.91945312 7.04321289 220.91015625 C-13.58732213 220.48771799 -32.3595748 212.15864138 -47.6875 198.5 C-48.23390137 198.01402344 -48.78030273 197.52804688 -49.34326172 197.02734375 C-62.94813376 184.68868334 -71.51143156 170.26910718 -78.6875 153.5 C-79.09742188 152.57058594 -79.50734375 151.64117187 -79.9296875 150.68359375 C-89.88234577 126.03340523 -88.76283047 99.15868525 -84.6875 73.5 C-119.7389366 73.5 -165.28057059 112.20580042 -188.63476562 135.31762695 Z M-232.6875 193.5 C-239.7175018 207.53574429 -246.27159632 221.45119414 -251.02636719 236.4296875 C-251.59870272 238.22193467 -252.2063367 240.00283734 -252.8203125 241.78125 C-258.14640677 257.71759505 -261.10861151 274.79315668 -262.6875 291.5 C-262.79835938 292.56992187 -262.90921875 293.63984375 -263.0234375 294.7421875 C-268.72203428 358.9669134 -250.00750136 427.1458902 -210.6875 478.5 C-209.88058085 479.58003529 -209.07459952 480.66077185 -208.26953125 481.7421875 C-194.23585131 500.45282611 -178.33778336 518.28893079 -159.6875 532.5 C-158.72328125 533.26957031 -157.7590625 534.03914063 -156.765625 534.83203125 C-142.35711062 546.27877018 -126.89959814 555.83821707 -110.6875 564.5 C-109.36708363 561.85916727 -109.75552458 560.25869502 -110.02734375 557.31640625 C-115.03657568 496.99475333 -108.8266615 438.75189661 -99.19799805 379.26611328 C-96.01783366 359.50376127 -94.4536451 341.73757041 -106.6875 324.5 C-109.89736926 320.38818401 -113.27871036 316.44701958 -116.6875 312.5 C-118.10857359 310.73270121 -119.52531936 308.96191285 -120.9375 307.1875 C-126.11536814 300.84483903 -131.72140356 294.92316288 -137.35150146 288.98477173 C-139.07963958 287.14657335 -140.79625329 285.30042199 -142.50500488 283.44438171 C-152.11315663 273.03293945 -162.05823301 262.98248779 -172.08203125 252.97265625 C-173.80855114 251.24546106 -175.5349227 249.51811759 -177.26115417 247.79063416 C-180.84378998 244.20653756 -184.42819457 240.62422236 -188.01391602 237.04321289 C-192.61973216 232.44315389 -197.22096217 227.83853752 -201.82092762 223.23262882 C-205.36798763 219.68197057 -208.91740666 216.13367829 -212.46756554 212.5861187 C-214.16725828 210.88709416 -215.8662054 209.18732338 -217.56440163 207.48680305 C-219.91919463 205.1294892 -222.27713592 202.77537196 -224.63598633 200.42211914 C-225.33975403 199.71632721 -226.04352173 199.01053528 -226.76861572 198.28335571 C-227.72478539 197.33141579 -227.72478539 197.33141579 -228.70027161 196.36024475 C-229.25636518 195.80452821 -229.81245874 195.24881166 -230.38540363 194.67625523 C-231.51872302 193.38827683 -231.51872302 193.38827683 -232.6875 193.5 Z " fill="#E8221A" transform="translate(294.6875,-0.5)"/>
</svg>
